<?xml version="1.0" encoding="UTF-8" standalone="no"?><!DOCTYPE svg PUBLIC "-//W3C//DTD SVG 1.1//EN" "http://www.w3.org/Graphics/SVG/1.1/DTD/svg11.dtd"><svg width="100%" height="100%" viewBox="0 0 10417 3088" version="1.1" xmlns="http://www.w3.org/2000/svg" xmlns:xlink="http://www.w3.org/1999/xlink" xml:space="preserve" xmlns:serif="http://www.serif.com/" style="fill-rule:evenodd;clip-rule:evenodd;stroke-miterlimit:10;"><path d="M10030.9,3086.96l-9645.06,-0c-216.049,-0 -385.802,-169.753 -385.802,-385.803l0,-2314.81c0,-216.05 169.753,-385.803 385.802,-385.803l9645.06,0c216.05,0 385.803,169.753 385.803,385.803l-0,2314.81c-0,216.05 -169.753,385.803 -385.803,385.803Z" style="fill-rule:nonzero;"/><path d="M10030.9,62.269c177.469,-0 324.074,146.604 324.074,324.074l0,2314.81c0,177.47 -146.605,324.074 -324.074,324.074l-9645.06,0c-177.469,0 -324.074,-146.604 -324.074,-324.074l0,-2314.81c0,-177.47 146.605,-324.074 324.074,-324.074l9645.06,-0Zm0,-61.729l-9645.06,0c-216.049,0 -385.802,177.469 -385.802,385.803l0,2314.81c0,216.05 169.753,385.803 385.802,385.803l9645.06,-0c216.05,-0 385.803,-169.753 385.803,-385.803l-0,-2314.81c-0,-208.334 -169.753,-385.803 -385.803,-385.803Z" style="fill:#a6a6a6;fill-rule:nonzero;"/><path d="M3670.85,787.577l0,-30.864c0,-7.423 -6.017,-13.441 -13.441,-13.441l-223.765,0c-7.423,0 -13.441,6.018 -13.441,13.441l0,61.728c0,7.424 6.018,13.441 13.441,13.441l155.593,0c-3.09,28.423 -15.912,51.635 -33.924,69.648c-35.783,35.782 -71.574,50.075 -121.669,50.075c-43.249,0 -79.02,-22.234 -115.06,-51.067c-35.419,-28.335 -48.968,-71.09 -48.968,-120.677c-0,-49.586 13.549,-92.342 48.968,-120.677c0.775,-0.62 1.479,-1.324 2.099,-2.099c28.199,-35.249 70.663,-48.968 112.961,-48.968c49.348,-0 84.762,13.719 112.961,48.968c2.389,2.985 5.935,4.812 9.752,5.024c3.818,0.211 7.545,-1.213 10.248,-3.917l38.58,-38.58c4.531,-4.53 5.233,-11.629 1.679,-16.96c-16.64,-24.96 -41.336,-41.938 -74.616,-58.578c-32.862,-16.431 -65.743,-24.567 -98.604,-24.567c-73.34,-0 -130.364,24.488 -179.257,73.381c-48.893,48.893 -73.381,105.918 -73.381,179.257c-0,73.34 24.488,130.364 73.381,179.257c48.893,48.893 105.917,73.381 179.257,73.381c73.339,0 130.364,-24.488 179.257,-73.381c41.004,-41.004 57.949,-98.218 57.949,-163.825Zm2017.67,163.825c48.893,-48.893 73.382,-105.917 73.382,-179.257c-0,-73.339 -24.489,-130.364 -73.382,-179.257c-48.893,-48.893 -105.917,-73.381 -179.257,-73.381c-73.339,-0 -130.364,24.488 -179.257,73.381c-48.893,48.893 -73.381,105.918 -73.381,179.257c-0,73.34 24.488,130.364 73.381,179.257c48.893,48.893 105.918,73.381 179.257,73.381c73.34,0 130.364,-24.488 179.257,-73.381Zm-1676.17,-343.285c7.423,-0 13.441,-6.018 13.441,-13.441l-0,-54.012c-0,-7.424 -6.018,-13.441 -13.441,-13.441l-270.062,-0c-7.423,-0 -13.441,6.017 -13.441,13.441l0,462.963c0,7.423 6.018,13.44 13.441,13.44l270.062,0c7.423,0 13.441,-6.017 13.441,-13.44l-0,-61.729c-0,-7.423 -6.018,-13.441 -13.441,-13.441l-194.893,0c0,0 0,-119.723 0,-119.723c0,0 179.461,0 179.461,0c7.423,0 13.44,-6.018 13.44,-13.441l0,-54.012c0,-7.423 -6.017,-13.441 -13.44,-13.441l-179.461,0c0,-0 0,-119.723 0,-119.723c0,-0 194.893,-0 194.893,-0Zm254.629,408.95c7.423,0 13.441,-6.017 13.441,-13.44l0,-395.51c0,-0 117.732,-0 117.732,-0c7.423,-0 13.441,-6.018 13.441,-13.441l0,-54.012c0,-7.424 -6.018,-13.441 -13.441,-13.441l-324.074,-0c-7.423,-0 -13.441,6.017 -13.441,13.441l0,54.012c0,7.423 6.018,13.441 13.441,13.441l117.732,-0c0,-0 0,395.51 0,395.51c0,7.423 6.018,13.44 13.441,13.44l61.728,0Zm341.498,-13.44c-0,7.423 6.017,13.44 13.441,13.44l61.728,0c7.423,0 13.441,-6.017 13.441,-13.44l-0,-462.963c-0,-7.424 -6.018,-13.441 -13.441,-13.441l-61.728,-0c-7.424,-0 -13.441,6.017 -13.441,13.441l-0,462.963Zm337.515,-5.725l5.724,5.725l0,-395.51c0.001,-0 117.732,-0 117.732,-0c7.424,-0 13.441,-6.018 13.441,-13.441l0,-54.012c0,-7.424 -6.017,-13.441 -13.441,-13.441l-316.358,-0c-7.423,-0 -13.44,6.017 -13.44,13.441l-0,54.012c-0,7.423 6.017,13.441 13.44,13.441l117.732,-0c0,-0 0,395.51 0,395.51c0,7.423 6.018,13.44 13.441,13.44l61.729,0l-0,-19.165Zm873.904,5.725c0,7.423 6.018,13.44 13.441,13.44l54.013,0c7.423,0 13.441,-6.017 13.441,-13.44l-0,-331.702c-0,0 214.398,338.888 214.398,338.888c2.463,3.894 6.75,6.254 11.358,6.254l61.729,0c7.423,0 13.44,-6.017 13.44,-13.44l0,-462.963c0,-7.424 -6.017,-13.441 -13.44,-13.441l-61.729,-0c-7.423,-0 -13.441,6.017 -13.441,13.441l0,315.274c0,0 -198.886,-322.332 -198.886,-322.332c-2.448,-3.968 -6.776,-6.383 -11.438,-6.383l-69.445,-0c-7.423,-0 -13.441,6.017 -13.441,13.441l0,462.963Zm-424.585,-109.813c-0.351,-0.351 -0.721,-0.682 -1.108,-0.992c-35.419,-28.335 -48.968,-71.09 -48.968,-120.677c-0,-50.095 21.45,-93.043 50.076,-121.669c0.35,-0.35 0.681,-0.72 0.991,-1.107c28.199,-35.249 70.663,-48.968 112.961,-48.968c42.763,-0 85.444,21.567 113.953,50.075c0.351,0.351 0.72,0.682 1.108,0.992c35.419,28.335 48.968,71.091 48.968,120.677c-0,50.096 -21.45,93.043 -50.076,121.669c-0.351,0.35 -0.682,0.72 -0.991,1.107c-28.199,35.249 -70.663,48.968 -112.962,48.968c-42.763,0 -85.444,-21.567 -113.952,-50.075Z" style="fill:#fff;fill-rule:nonzero;stroke:#fff;stroke-width:15.43px;"/><path d="M5254.63,1682.64c-185.186,-0 -331.79,138.889 -331.79,331.79c-0,185.185 146.604,331.79 331.79,331.79c185.185,0 331.79,-138.889 331.79,-331.79c-0,-200.617 -146.605,-331.79 -331.79,-331.79Zm-0,524.691c-100.309,0 -185.186,-84.876 -185.186,-200.617c0,-115.741 84.877,-200.617 185.186,-200.617c100.308,-0 185.185,77.16 185.185,200.617c-0,115.741 -84.877,200.617 -185.185,200.617Zm-717.593,-524.691c-185.185,-0 -331.79,138.889 -331.79,331.79c-0,185.185 146.605,331.79 331.79,331.79c185.185,0 331.79,-138.889 331.79,-331.79c0,-200.617 -146.605,-331.79 -331.79,-331.79Zm0,524.691c-100.309,0 -185.185,-84.876 -185.185,-200.617c-0,-115.741 84.876,-200.617 185.185,-200.617c100.309,-0 185.185,77.16 185.185,200.617c0,115.741 -84.876,200.617 -185.185,200.617Zm-856.481,-424.382l-0,138.888l331.79,0c-7.716,77.161 -38.581,138.889 -77.161,177.47c-46.296,46.296 -123.457,100.308 -254.629,100.308c-208.334,0 -362.655,-162.037 -362.655,-370.37c0,-208.334 162.037,-370.371 362.655,-370.371c108.024,0 192.901,46.297 254.629,100.309l100.309,-100.309c-84.877,-77.16 -192.901,-138.888 -347.222,-138.888c-277.778,-0 -516.976,231.481 -516.976,509.259c0,277.778 239.198,509.259 516.976,509.259c154.321,0 262.345,-46.296 354.938,-146.605c92.592,-92.592 123.457,-223.765 123.457,-324.074c-0,-30.864 -0,-61.728 -7.716,-84.876l-478.395,-0Zm3503.09,108.024c-30.864,-77.16 -108.025,-208.333 -277.778,-208.333c-169.753,-0 -308.642,131.173 -308.642,331.79c0,185.185 138.889,331.79 324.074,331.79c146.605,0 239.198,-92.592 270.062,-146.605l-108.025,-77.16c-38.58,54.012 -84.876,92.592 -162.037,92.592c-77.16,0 -123.456,-30.864 -162.037,-100.308l439.815,-185.186l-15.432,-38.58Zm-447.531,108.025c0,-123.457 100.309,-192.901 169.753,-192.901c54.013,-0 108.025,30.864 123.457,69.444l-293.21,123.457Zm-362.654,316.358l146.605,-0l-0,-964.506l-146.605,-0l-0,964.506Zm-231.482,-563.272c-38.58,-38.58 -100.308,-77.16 -177.469,-77.16c-162.037,-0 -316.358,146.605 -316.358,331.79c0,185.185 146.605,324.074 316.358,324.074c77.161,0 138.889,-38.58 169.753,-77.16l7.716,-0l0,46.296c0,123.457 -69.444,192.901 -177.469,192.901c-84.876,0 -146.605,-61.728 -162.037,-115.741l-123.457,54.013c38.581,84.876 131.173,192.901 293.21,192.901c169.753,-0 308.642,-100.309 308.642,-339.506l0,-586.42l-138.889,-0l0,54.012Zm-169.753,455.247c-100.308,0 -185.185,-84.876 -185.185,-200.617c0,-115.741 84.877,-200.617 185.185,-200.617c100.309,-0 177.469,84.876 177.469,200.617c0,115.741 -77.16,200.617 -177.469,200.617Zm1882.72,-856.481l-347.222,-0l0,964.506l146.605,-0l-0,-362.654l200.617,-0c162.037,-0 316.358,-115.741 316.358,-300.926c0,-185.185 -154.321,-300.926 -316.358,-300.926Zm7.716,462.963l-208.333,-0l-0,-331.79l208.333,-0c108.025,-0 169.753,92.592 169.753,162.037c-7.716,84.876 -69.444,169.753 -169.753,169.753Zm887.346,-138.889c-108.025,-0 -216.049,46.296 -254.63,146.605l131.173,54.012c30.864,-54.012 77.161,-69.444 131.173,-69.444c77.161,-0 146.605,46.296 154.321,123.456l0,7.717c-23.148,-15.433 -84.877,-38.581 -146.605,-38.581c-138.889,0 -277.778,77.161 -277.778,216.05c0,131.172 115.741,216.049 239.198,216.049c100.308,0 146.605,-46.296 185.185,-92.593l7.716,0l0,77.161l138.889,-0l-0,-370.37c-15.432,-169.754 -146.605,-270.062 -308.642,-270.062Zm-15.432,532.407c-46.296,0 -115.741,-23.148 -115.741,-84.876c0,-77.161 84.877,-100.309 154.321,-100.309c61.729,0 92.593,15.432 131.173,30.864c-15.432,92.593 -92.593,154.321 -169.753,154.321Zm810.185,-509.259l-162.037,416.667l-7.716,-0l-169.753,-416.667l-154.321,-0l254.63,586.42l-146.605,324.074l146.605,-0l393.518,-910.494l-154.321,-0Zm-1296.3,617.284l146.605,-0l-0,-964.506l-146.605,-0l-0,964.506Z" style="fill:#fff;fill-rule:nonzero;"/><path d="M802.469,579.244c-23.148,23.148 -30.864,61.728 -30.864,108.025l-0,1705.25c-0,46.297 15.432,84.877 38.58,108.025l7.716,7.716l956.79,-956.79l0,-15.432l-972.222,-956.79Z" style="fill:url(#_Linear1);fill-rule:nonzero;"/><path d="M2083.33,1875.54l-316.358,-316.358l0,-23.148l316.358,-316.358l7.716,7.716l378.087,216.049c108.024,61.729 108.024,162.037 -0,223.766l-385.803,208.333Z" style="fill:url(#_Linear2);fill-rule:nonzero;"/><path d="M2091.05,1867.82l-324.074,-324.074l-964.506,964.506c38.58,38.58 92.593,38.58 162.037,7.716l1126.54,-648.148Z" style="fill:url(#_Linear3);fill-rule:nonzero;"/><path d="M2091.05,1219.68l-1126.54,-640.432c-69.444,-38.58 -123.457,-30.864 -162.037,7.716l964.506,956.79l324.074,-324.074Z" style="fill:url(#_Linear4);fill-rule:nonzero;"/><path d="M2083.33,1860.11l-1118.83,632.716c-61.728,38.58 -115.741,30.864 -154.321,0l-7.716,7.716l7.716,7.716c38.58,30.864 92.593,38.58 154.321,0l1118.83,-648.148Z" style="fill-opacity:0.2;fill-rule:nonzero;"/><path d="M802.469,2492.82c-23.148,-23.148 -30.864,-61.728 -30.864,-108.025l-0,7.716c-0,46.297 15.432,84.877 38.58,108.025l0,-7.716l-7.716,0Zm1666.67,-848.765l-385.803,216.049l7.716,7.716l378.087,-216.049c54.012,-30.865 77.16,-69.445 77.16,-108.025c0,38.58 -30.864,69.444 -77.16,100.309Z" style="fill-opacity:0.12;fill-rule:nonzero;"/><path d="M964.506,586.96l1504.63,856.481c46.296,30.865 77.16,61.729 77.16,100.309c0,-38.58 -23.148,-77.16 -77.16,-108.025l-1504.63,-856.481c-108.025,-61.729 -192.901,-15.432 -192.901,108.025l-0,7.716c-0,-115.741 84.876,-169.754 192.901,-108.025Z" style="fill:#fff;fill-opacity:0.25;fill-rule:nonzero;"/><defs><linearGradient id="_Linear1" x1="0" y1="0" x2="1" y2="0" gradientUnits="userSpaceOnUse" gradientTransform="matrix(-1294.98,1294.91,-1294.91,-1294.98,1682.1,671.528)"><stop offset="0" style="stop-color:#00a0ff;stop-opacity:1"/><stop offset="0.01" style="stop-color:#00a1ff;stop-opacity:1"/><stop offset="0.26" style="stop-color:#00beff;stop-opacity:1"/><stop offset="0.51" style="stop-color:#00d2ff;stop-opacity:1"/><stop offset="0.76" style="stop-color:#00dfff;stop-opacity:1"/><stop offset="1" style="stop-color:#00e3ff;stop-opacity:1"/></linearGradient><linearGradient id="_Linear2" x1="0" y1="0" x2="1" y2="0" gradientUnits="userSpaceOnUse" gradientTransform="matrix(-1867.05,2.28648e-13,-2.28648e-13,-1867.05,2610.65,1542.75)"><stop offset="0" style="stop-color:#ffe000;stop-opacity:1"/><stop offset="0.41" style="stop-color:#ffbd00;stop-opacity:1"/><stop offset="0.78" style="stop-color:#ffa500;stop-opacity:1"/><stop offset="1" style="stop-color:#ff9c00;stop-opacity:1"/></linearGradient><linearGradient id="_Linear3" x1="0" y1="0" x2="1" y2="0" gradientUnits="userSpaceOnUse" gradientTransform="matrix(-1756.02,1756.02,-1756.02,-1756.02,1915.66,1719.83)"><stop offset="0" style="stop-color:#ff3a44;stop-opacity:1"/><stop offset="1" style="stop-color:#c31162;stop-opacity:1"/></linearGradient><linearGradient id="_Linear4" x1="0" y1="0" x2="1" y2="0" gradientUnits="userSpaceOnUse" gradientTransform="matrix(784.182,784.182,-784.182,784.182,563.04,13.0401)"><stop offset="0" style="stop-color:#32a071;stop-opacity:1"/><stop offset="0.07" style="stop-color:#2da771;stop-opacity:1"/><stop offset="0.48" style="stop-color:#15cf74;stop-opacity:1"/><stop offset="0.8" style="stop-color:#06e775;stop-opacity:1"/><stop offset="1" style="stop-color:#00f076;stop-opacity:1"/></linearGradient></defs></svg>