<svg width="540" height="161" viewBox="0 0 540 161" fill="none" xmlns="http://www.w3.org/2000/svg">
<path d="M536.417 142.04C536.417 144.054 536.02 146.048 535.249 147.908C534.478 149.768 533.347 151.458 531.922 152.882C530.497 154.305 528.805 155.433 526.944 156.202C525.082 156.972 523.087 157.366 521.073 157.364H18.9258C14.8559 157.369 10.9509 155.757 8.06966 152.883C5.18841 150.009 3.56683 146.109 3.56152 142.04V19.8345C3.56683 15.7638 5.18777 11.8616 8.06845 8.98465C10.9491 6.10774 14.854 4.49129 18.9258 4.49023H521.069C523.084 4.49023 525.08 4.88715 526.942 5.65832C528.804 6.42949 530.495 7.5598 531.92 8.98469C533.345 10.4096 534.475 12.1012 535.246 13.9628C536.017 15.8244 536.414 17.8196 536.413 19.8345L536.417 142.04Z" fill="white"/>
<path d="M521.073 160.93H18.9262C13.9125 160.929 9.10404 158.939 5.55583 155.398C2.00763 151.857 0.00953966 147.053 0 142.04L0 19.8389C0.00741701 14.8241 2.00419 10.0169 5.55228 6.47201C9.10037 2.92711 13.91 0.93392 18.9262 0.929688L521.069 0.929688C526.085 0.936032 530.893 2.9299 534.441 6.47435C537.988 10.0188 539.986 14.8247 539.995 19.8389V142.04C540.003 152.459 531.499 160.93 521.073 160.93V160.93Z" fill="#A6A6A6"/>
<path d="M536.417 142.04C536.417 144.054 536.02 146.048 535.249 147.908C534.478 149.768 533.347 151.458 531.922 152.882C530.497 154.305 528.805 155.433 526.944 156.202C525.082 156.972 523.087 157.366 521.073 157.364H18.9258C14.8559 157.369 10.9509 155.757 8.06966 152.883C5.18841 150.009 3.56683 146.109 3.56152 142.04V19.8345C3.56683 15.7638 5.18777 11.8616 8.06845 8.98465C10.9491 6.10774 14.854 4.49129 18.9258 4.49023H521.069C523.084 4.49023 525.08 4.88715 526.942 5.65832C528.804 6.42949 530.495 7.5598 531.92 8.98469C533.345 10.4096 534.475 12.1012 535.246 13.9628C536.017 15.8244 536.414 17.8196 536.413 19.8345L536.417 142.04Z" fill="black"/>
<path d="M120.577 80.0876C120.461 67.1921 131.139 60.9183 131.627 60.6263C125.58 51.8118 116.207 50.6075 112.913 50.5115C105.041 49.6833 97.4046 55.2208 93.3945 55.2208C89.3043 55.2208 83.1289 50.5915 76.4733 50.7275C67.9087 50.8596 59.8964 55.8169 55.502 63.5151C46.4331 79.2114 53.1968 102.278 61.8855 114.965C66.2318 121.183 71.3106 128.117 77.9581 127.873C84.4616 127.609 86.891 123.732 94.7392 123.732C102.515 123.732 104.797 127.873 111.576 127.717C118.556 127.609 122.95 121.475 127.145 115.205C132.167 108.087 134.184 101.069 134.265 100.709C134.104 100.653 120.713 95.5399 120.577 80.0876V80.0876ZM107.77 42.1652C111.268 37.792 113.661 31.8423 112.997 25.8047C107.934 26.0287 101.603 29.3057 97.9569 33.5828C94.7312 37.3519 91.8496 43.5296 92.594 49.3392C98.2811 49.7633 104.12 46.4704 107.77 42.1652V42.1652Z" fill="white"/>
<path d="M521.074 0.929688H252.108L357.457 160.93H521.074C526.088 160.925 530.897 158.933 534.445 155.39C537.993 151.847 539.99 147.042 540 142.028V19.8389C539.991 14.8244 537.994 10.0179 534.446 6.47318C530.898 2.92851 526.089 0.934977 521.074 0.929688V0.929688Z" fill="url(#paint0_linear_103_253)"/>
<path d="M214.776 126.98H205.687L200.708 111.34H183.403L178.66 126.98H169.812L186.961 73.7335H197.55L214.776 126.98V126.98ZM199.207 104.778L194.705 90.8742C194.229 89.4538 193.332 86.1089 192.02 80.8435H191.859C191.331 83.1081 190.487 86.453 189.33 90.8742L184.904 104.778H199.207ZM258.792 107.311C258.792 113.841 257.019 119.002 253.469 122.791C250.291 126.164 246.341 127.848 241.63 127.848C236.544 127.848 232.886 126.036 230.664 122.403V142.548H222.132V101.205C222.132 97.104 222.024 92.8988 221.816 88.5856H229.32L229.796 94.6713H229.956C232.802 90.086 237.12 87.7934 242.915 87.7934C247.445 87.7934 251.227 89.5819 254.253 93.1629C257.275 96.7519 258.792 101.465 258.792 107.311ZM250.099 107.623C250.099 103.886 249.258 100.805 247.569 98.3763C245.724 95.8516 243.247 94.5873 240.141 94.5873C238.036 94.5873 236.123 95.2915 234.414 96.6798C232.701 98.0802 231.581 99.9087 231.057 102.173C230.823 103.02 230.69 103.892 230.66 104.77V111.176C230.66 113.965 231.517 116.321 233.23 118.25C234.943 120.17 237.168 121.135 239.905 121.135C243.119 121.135 245.62 119.89 247.409 117.422C249.202 114.945 250.099 111.68 250.099 107.623V107.623ZM302.963 107.311C302.963 113.841 301.19 119.002 297.641 122.791C294.459 126.164 290.513 127.848 285.798 127.848C280.711 127.848 277.053 126.036 274.832 122.403V142.548H266.3V101.205C266.3 97.104 266.192 92.8988 265.983 88.5856H273.487L273.964 94.6713H274.124C276.965 90.086 281.284 87.7934 287.083 87.7934C291.609 87.7934 295.391 89.5819 298.425 93.1629C301.443 96.7519 302.963 101.465 302.963 107.311V107.311ZM294.267 107.623C294.267 103.886 293.422 100.805 291.733 98.3763C289.888 95.8516 287.419 94.5873 284.313 94.5873C282.208 94.5873 280.295 95.2915 278.578 96.6798C276.865 98.0802 275.749 99.9087 275.224 102.173C274.964 103.23 274.824 104.09 274.824 104.77V111.176C274.824 113.965 275.685 116.321 277.39 118.25C279.102 120.166 281.328 121.135 284.073 121.135C287.291 121.135 289.792 119.89 291.577 117.422C293.37 114.945 294.267 111.68 294.267 107.623V107.623ZM352.35 112.044C352.35 116.577 350.765 120.262 347.615 123.107C344.15 126.212 339.311 127.768 333.108 127.768C327.377 127.768 322.782 126.664 319.316 124.451L321.289 117.342C325.031 119.558 329.142 120.662 333.616 120.662C336.834 120.662 339.335 119.934 341.12 118.49C342.909 117.041 343.813 115.105 343.813 112.688C343.813 110.524 343.065 108.711 341.596 107.235C340.119 105.762 337.678 104.39 334.248 103.13C324.923 99.6527 320.257 94.5673 320.257 87.8774C320.257 83.5082 321.906 79.9312 325.195 77.1345C328.485 74.3417 332.848 72.9453 338.274 72.9453C343.121 72.9453 347.159 73.7895 350.365 75.474L348.224 82.4279C345.206 80.7955 341.8 79.9792 337.99 79.9792C334.981 79.9792 332.619 80.7194 330.93 82.1919C329.51 83.5082 328.789 85.1127 328.789 87.0172C328.789 89.1178 329.61 90.8622 331.243 92.2306C332.659 93.491 335.245 94.8633 338.983 96.3357C343.569 98.1842 346.939 100.337 349.096 102.81C351.269 105.282 352.35 108.367 352.35 112.044ZM380.633 94.9874H371.228V113.628C371.228 118.37 372.885 120.734 376.207 120.734C377.732 120.734 378.996 120.606 379.997 120.338L380.233 126.816C378.552 127.444 376.339 127.76 373.598 127.76C370.228 127.76 367.594 126.732 365.693 124.676C363.8 122.619 362.848 119.174 362.848 114.325V94.9714H357.245V88.5696H362.848V81.5397L371.228 79.011V88.5696H380.633V94.9874V94.9874ZM422.984 107.467C422.984 113.368 421.295 118.214 417.925 122.003C414.4 125.904 409.709 127.848 403.862 127.848C398.219 127.848 393.732 125.98 390.387 122.247C387.041 118.506 385.368 113.793 385.368 108.107C385.368 102.157 387.097 97.284 390.543 93.495C393.997 89.7019 398.647 87.8054 404.494 87.8054C410.129 87.8054 414.656 89.6779 418.082 93.4149C421.355 97.0399 422.984 101.721 422.984 107.467ZM414.139 107.663C414.139 104.146 413.379 101.129 411.854 98.6044C410.065 95.5555 407.504 94.0311 404.186 94.0311C400.768 94.0311 398.147 95.5555 396.362 98.6044C394.833 101.129 394.073 104.198 394.073 107.823C394.073 111.344 394.833 114.369 396.362 116.885C398.207 119.934 400.78 121.459 404.114 121.459C407.376 121.459 409.933 119.902 411.782 116.809C413.351 114.225 414.139 111.188 414.139 107.663ZM450.731 96.0877C449.844 95.9275 448.943 95.8485 448.042 95.8516C445.04 95.8516 442.719 96.9799 441.086 99.2525C439.669 101.253 438.957 103.782 438.957 106.835V126.98H430.424V100.677C430.432 96.6465 430.349 92.6164 430.176 88.5896H437.608L437.92 95.9356H438.156C439.061 93.4109 440.478 91.3744 442.423 89.85C444.203 88.5179 446.366 87.7966 448.59 87.7934C449.378 87.7934 450.091 87.8494 450.723 87.9494L450.731 96.0877V96.0877ZM488.892 105.966C488.913 107.263 488.809 108.559 488.58 109.835H462.982C463.078 113.628 464.318 116.533 466.696 118.534C468.853 120.318 471.642 121.215 475.068 121.215C478.858 121.215 482.316 120.614 485.426 119.402L486.763 125.32C483.129 126.904 478.838 127.692 473.888 127.692C467.932 127.692 463.258 125.94 459.856 122.443C456.462 118.942 454.761 114.237 454.761 108.343C454.761 102.557 456.342 97.7361 459.508 93.8911C462.822 89.7859 467.3 87.7334 472.935 87.7334C478.47 87.7334 482.66 89.7859 485.506 93.8911C487.759 97.144 488.892 101.177 488.892 105.966V105.966ZM480.755 103.754C480.815 101.221 480.255 99.0405 479.098 97.196C477.622 94.8193 475.348 93.635 472.303 93.635C469.513 93.635 467.24 94.7913 465.511 97.112C464.09 98.9565 463.246 101.173 462.986 103.746L480.755 103.754Z" fill="white"/>
<path d="M180.942 54.9081C178.569 54.9081 176.516 54.792 174.807 54.596V28.8529C177.197 28.4838 179.612 28.3018 182.031 28.3088C191.816 28.3088 196.322 33.1221 196.322 40.9682C196.322 50.0187 190.999 54.9081 180.942 54.9081ZM182.375 31.6097C181.054 31.6097 179.929 31.6897 178.997 31.8817V51.4511C179.501 51.5311 180.47 51.5672 181.83 51.5672C188.242 51.5672 191.892 47.9181 191.892 41.0843C191.892 34.9906 188.59 31.6097 182.375 31.6097V31.6097ZM210.366 55.1041C204.851 55.1041 201.277 50.987 201.277 45.3975C201.277 39.5719 204.927 35.4187 210.678 35.4187C216.113 35.4187 219.767 39.3398 219.767 45.0894C219.767 50.987 216.001 55.1041 210.366 55.1041ZM210.526 38.4836C207.496 38.4836 205.555 41.3163 205.555 45.2774C205.555 49.1625 207.536 51.9953 210.486 51.9953C213.435 51.9953 215.417 48.9664 215.417 45.1974C215.417 41.3563 213.476 38.4836 210.526 38.4836ZM251.216 35.8068L245.313 54.676H241.467L239.021 46.4818C238.413 44.4774 237.907 42.4436 237.504 40.3881H237.424C237.116 42.4446 236.532 44.5052 235.912 46.4818L233.31 54.676H229.424L223.869 35.8068H228.179L230.317 44.7773C230.821 46.9139 231.245 48.9304 231.597 50.8349H231.677C231.985 49.2465 232.49 47.262 233.23 44.8173L235.912 35.8108H239.329L241.895 44.6252C242.515 46.7618 243.019 48.8584 243.412 50.839H243.524C243.796 48.8984 244.224 46.8378 244.804 44.6252L247.098 35.8108L251.216 35.8068V35.8068ZM272.948 54.676H268.753V43.841C268.753 40.5041 267.473 38.8316 264.947 38.8316C262.462 38.8316 260.753 40.9682 260.753 43.4529V54.676H256.559V41.2003C256.559 39.5318 256.519 37.7433 256.403 35.8028H260.093L260.289 38.7156H260.405C261.533 36.6991 263.823 35.4187 266.388 35.4187C270.35 35.4187 272.952 38.4475 272.952 43.3769L272.948 54.676V54.676ZM284.514 54.676H280.316V27.1484H284.514V54.676ZM299.806 55.1041C294.295 55.1041 290.717 50.987 290.717 45.3975C290.717 39.5719 294.367 35.4187 300.114 35.4187C305.553 35.4187 309.203 39.3398 309.203 45.0894C309.207 50.987 305.437 55.1041 299.806 55.1041ZM299.962 38.4836C296.933 38.4836 294.991 41.3163 294.991 45.2774C294.991 49.1625 296.977 51.9953 299.918 51.9953C302.872 51.9953 304.849 48.9664 304.849 45.1974C304.853 41.3563 302.916 38.4836 299.962 38.4836V38.4836ZM325.74 54.676L325.436 52.5034H325.324C324.043 54.2519 322.174 55.1041 319.805 55.1041C316.423 55.1041 314.022 52.7355 314.022 49.5506C314.022 44.8933 318.06 42.4847 325.052 42.4847V42.1366C325.052 39.6519 323.735 38.4075 321.134 38.4075C319.273 38.4075 317.64 38.8757 316.203 39.8079L315.35 37.0512C317.095 35.9629 319.273 35.4187 321.83 35.4187C326.761 35.4187 329.25 38.0194 329.25 43.2249V50.1748C329.25 52.0793 329.334 53.5557 329.522 54.68L325.74 54.676V54.676ZM325.164 45.2774C320.505 45.2774 318.168 46.4057 318.168 49.0825C318.168 51.063 319.373 52.0313 321.046 52.0313C323.179 52.0313 325.164 50.4028 325.164 48.1902V45.2774V45.2774ZM349.617 54.676L349.421 51.6472H349.305C348.1 53.9358 346.075 55.1041 343.246 55.1041C338.695 55.1041 335.325 51.103 335.325 45.4735C335.325 39.5719 338.819 35.4147 343.59 35.4147C346.115 35.4147 347.904 36.2669 348.913 37.9794H348.997V27.1484H353.195V49.5906C353.195 51.4151 353.239 53.1236 353.351 54.676H349.617ZM348.997 43.573C348.997 40.9322 347.248 38.6796 344.578 38.6796C341.469 38.6796 339.568 41.4364 339.568 45.3174C339.568 49.1225 341.541 51.7272 344.494 51.7272C347.132 51.7272 348.997 49.4346 348.997 46.7178V43.573ZM379.813 55.1041C374.302 55.1041 370.728 50.987 370.728 45.3975C370.728 39.5719 374.378 35.4187 380.125 35.4187C385.564 35.4187 389.214 39.3398 389.214 45.0894C389.218 50.987 385.452 55.1041 379.813 55.1041ZM379.969 38.4836C376.944 38.4836 375.003 41.3163 375.003 45.2774C375.003 49.1625 376.984 51.9953 379.929 51.9953C382.883 51.9953 384.86 48.9664 384.86 45.1974C384.868 41.3563 382.927 38.4836 379.969 38.4836ZM411.771 54.676H407.572V43.841C407.572 40.5041 406.292 38.8316 403.766 38.8316C401.281 38.8316 399.576 40.9682 399.576 43.4529V54.676H395.378V41.2003C395.378 39.5318 395.338 37.7433 395.222 35.8028H398.912L399.108 38.7156H399.224C400.348 36.6991 402.642 35.4147 405.203 35.4147C409.165 35.4147 411.771 38.4435 411.771 43.3729V54.676ZM439.99 38.9517H435.375V48.1142C435.375 50.4468 436.184 51.6112 437.817 51.6112C438.557 51.6112 439.177 51.5311 439.678 51.4151L439.794 54.6C438.981 54.9121 437.893 55.0681 436.54 55.0681C433.234 55.0681 431.257 53.2436 431.257 48.4663V38.9517H428.504V35.8068H431.257V32.3499L435.375 31.1055V35.8028H439.99V38.9517V38.9517ZM462.194 54.676H458.003V43.921C458.003 40.5441 456.727 38.8357 454.197 38.8357C452.024 38.8357 449.999 40.3121 449.999 43.3009V54.676H445.809V27.1484H449.999V38.4836H450.083C451.404 36.427 453.317 35.4147 455.758 35.4147C459.752 35.4147 462.194 38.5196 462.194 43.4529V54.676V54.676ZM484.942 46.2497H472.355C472.435 49.8227 474.801 51.8392 478.302 51.8392C480.163 51.8392 481.876 51.5271 483.389 50.947L484.041 53.8598C482.257 54.636 480.155 55.0241 477.71 55.0241C471.807 55.0241 468.313 51.2951 468.313 45.5135C468.313 39.7279 471.891 35.3787 477.238 35.3787C482.06 35.3787 485.086 38.9517 485.086 44.3492C485.113 44.9861 485.065 45.6241 484.942 46.2497V46.2497ZM481.096 43.2609C481.096 40.3481 479.627 38.2915 476.946 38.2915C474.536 38.2915 472.631 40.3881 472.359 43.2609H481.096V43.2609Z" fill="white"/>
<defs>
<linearGradient id="paint0_linear_103_253" x1="396.05" y1="161.354" x2="396.05" y2="-415.683" gradientUnits="userSpaceOnUse">
<stop stop-color="#1A1A1A" stop-opacity="0.1"/>
<stop offset="0.123" stop-color="#212121" stop-opacity="0.151"/>
<stop offset="0.308" stop-color="#353535" stop-opacity="0.227"/>
<stop offset="0.532" stop-color="#575757" stop-opacity="0.318"/>
<stop offset="0.783" stop-color="#858585" stop-opacity="0.421"/>
<stop offset="1" stop-color="#B3B3B3" stop-opacity="0.51"/>
</linearGradient>
</defs>
</svg>
