<svg width="173" height="23" viewBox="0 0 173 23" fill="none" xmlns="http://www.w3.org/2000/svg">
<path d="M9.6955 2.30137C10.0355 1.42331 11.3216 1.42331 11.6616 2.30137L13.6741 7.49848C13.8216 7.87941 14.1906 8.13831 14.6113 8.15606L20.3517 8.39828C21.3215 8.4392 21.719 9.6204 20.9593 10.204L16.4627 13.6582C16.1331 13.9114 15.9921 14.3303 16.1047 14.7222L17.64 20.069C17.8994 20.9724 16.8588 21.7024 16.0493 21.185L11.2578 18.1227C10.9066 17.8983 10.4505 17.8983 10.0993 18.1227L5.30783 21.185C4.4983 21.7024 3.45778 20.9724 3.71718 20.069L5.25249 14.7222C5.36502 14.3303 5.22408 13.9114 4.89449 13.6582L0.397872 10.204C-0.361836 9.62041 0.0356044 8.4392 1.00544 8.39828L6.74581 8.15606C7.16656 8.13831 7.53557 7.87941 7.68307 7.49849L9.6955 2.30137Z" fill="#FFA40D"/>
<path d="M39.2669 2.30137C39.6069 1.42331 40.8931 1.42331 41.2331 2.30137L43.2455 7.49848C43.393 7.87941 43.762 8.13831 44.1828 8.15606L49.9231 8.39828C50.893 8.4392 51.2904 9.6204 50.5307 10.204L46.0341 13.6582C45.7045 13.9114 45.5636 14.3303 45.6761 14.7222L47.2114 20.069C47.4708 20.9724 46.4303 21.7024 45.6208 21.185L40.8293 18.1227C40.4781 17.8983 40.022 17.8983 39.6708 18.1227L34.8793 21.185C34.0697 21.7024 33.0292 20.9724 33.2886 20.069L34.8239 14.7222C34.9365 14.3303 34.7955 13.9114 34.4659 13.6582L29.9693 10.204C29.2096 9.62041 29.607 8.4392 30.5769 8.39828L36.3173 8.15606C36.738 8.13831 37.107 7.87941 37.2545 7.49849L39.2669 2.30137Z" fill="#FFA40D"/>
<path d="M68.8384 2.30137C69.1784 1.42331 70.4645 1.42331 70.8045 2.30137L72.8169 7.49848C72.9644 7.87941 73.3334 8.13831 73.7542 8.15606L79.4946 8.39828C80.4644 8.4392 80.8618 9.6204 80.1021 10.204L75.6055 13.6582C75.2759 13.9114 75.135 14.3303 75.2475 14.7222L76.7828 20.069C77.0422 20.9724 76.0017 21.7024 75.1922 21.185L70.4007 18.1227C70.0495 17.8983 69.5934 17.8983 69.2422 18.1227L64.4507 21.185C63.6412 21.7024 62.6006 20.9724 62.86 20.069L64.3953 14.7222C64.5079 14.3303 64.3669 13.9114 64.0373 13.6582L59.5407 10.204C58.781 9.62041 59.1785 8.4392 60.1483 8.39828L65.8887 8.15606C66.3094 8.13831 66.6784 7.87941 66.8259 7.49849L68.8384 2.30137Z" fill="#FFA40D"/>
<path d="M98.4098 2.30137C98.7498 1.42331 100.036 1.42331 100.376 2.30137L102.388 7.49848C102.536 7.87941 102.905 8.13831 103.326 8.15606L109.066 8.39828C110.036 8.4392 110.433 9.6204 109.674 10.204L105.177 13.6582C104.847 13.9114 104.706 14.3303 104.819 14.7222L106.354 20.069C106.614 20.9724 105.573 21.7024 104.764 21.185L99.9721 18.1227C99.6209 17.8983 99.1648 17.8983 98.8136 18.1227L94.0221 21.185C93.2126 21.7024 92.1721 20.9724 92.4315 20.069L93.9668 14.7222C94.0793 14.3303 93.9384 13.9114 93.6088 13.6582L89.1122 10.204C88.3525 9.62041 88.7499 8.4392 89.7197 8.39828L95.4601 8.15606C95.8809 8.13831 96.2499 7.87941 96.3974 7.49849L98.4098 2.30137Z" fill="#FFA40D"/>
<path d="M124.695 2.30137C125.035 1.42331 126.322 1.42331 126.662 2.30137L128.674 7.49848C128.822 7.87941 129.191 8.13831 129.611 8.15606L135.352 8.39828C136.322 8.4392 136.719 9.6204 135.959 10.204L131.463 13.6582C131.133 13.9114 130.992 14.3303 131.105 14.7222L132.64 20.069C132.899 20.9724 131.859 21.7024 131.049 21.185L126.258 18.1227C125.907 17.8983 125.451 17.8983 125.099 18.1227L120.308 21.185C119.498 21.7024 118.458 20.9724 118.717 20.069L120.252 14.7222C120.365 14.3303 120.224 13.9114 119.894 13.6582L115.398 10.204C114.638 9.62041 115.036 8.4392 116.005 8.39828L121.746 8.15606C122.167 8.13831 122.536 7.87941 122.683 7.49849L124.695 2.30137Z" fill="#FFA40D"/>
<path d="M158.274 16.336C157.122 17.3387 156.183 18.112 155.458 18.656L155.202 18.848H160.914V20H153.426V18.976C154.652 17.9093 155.586 17.1147 156.226 16.592C156.556 16.336 156.876 16.0693 157.186 15.792C157.986 15.1093 158.572 14.5067 158.946 13.984C159.33 13.4613 159.522 12.8533 159.522 12.16C159.522 11.4347 159.292 10.864 158.834 10.448C158.375 10.032 157.719 9.824 156.866 9.824C156.343 9.824 155.772 9.90933 155.154 10.08C154.546 10.2507 154.002 10.4373 153.522 10.64L153.426 9.36C153.959 9.14667 154.546 8.98133 155.186 8.864C155.836 8.736 156.45 8.672 157.026 8.672C158.252 8.672 159.212 8.96 159.906 9.536C160.599 10.112 160.946 10.9493 160.946 12.048C160.946 12.8267 160.743 13.5307 160.338 14.16C159.932 14.7787 159.244 15.504 158.274 16.336ZM166.312 8.736V20H164.968V9.936L162.152 10.928L162.104 9.824L165.176 8.736H166.312Z" fill="#6EADF3"/>
</svg>
