<svg width="142" height="63" viewBox="0 0 142 63" fill="none" xmlns="http://www.w3.org/2000/svg">
<path d="M85.7624 29.5195C84.7922 29.0637 83.5241 28.8065 81.9929 28.8065C78.2819 28.8065 75.7865 31.0974 75.7865 35.1182C75.7865 39.4428 78.4865 41.8915 82.8111 41.8915C83.5767 41.8915 84.7455 41.8389 85.7624 41.6343V29.5195ZM91.8694 46.0642C89.1695 46.7771 85.6572 47.1336 82.6007 47.1336C74.7579 47.1336 69.5684 42.9609 69.5684 35.3227C69.5684 28.0936 74.4014 23.4124 81.4845 23.4124C83.0624 23.4124 84.7396 23.6111 85.7624 24.1254V13.6353H91.8694V46.0642Z" fill="#DC0032"/>
<path d="M135.893 29.5195C134.923 29.0637 133.649 28.8065 132.123 28.8065C128.406 28.8065 125.911 31.0974 125.911 35.1182C125.911 39.4428 128.611 41.8915 132.936 41.8915C133.701 41.8915 134.87 41.8389 135.893 41.6343V29.5195ZM142 46.0642C139.3 46.7771 135.788 47.1336 132.731 47.1336C124.894 47.1336 119.699 42.9609 119.699 35.3227C119.699 28.0936 124.538 23.4124 131.615 23.4124C133.193 23.4124 134.876 23.6111 135.893 24.1254V13.6353H142V46.0642Z" fill="#DC0032"/>
<path d="M101.477 29.4676C102.494 29.0585 103.92 28.9065 105.141 28.9065C108.911 28.9065 111.506 31.0922 111.506 35.0136C111.506 39.6363 108.63 41.7285 104.785 41.7811V47.1226C104.884 47.1226 104.989 47.1284 105.095 47.1284C112.984 47.1284 117.718 42.6986 117.718 34.8091C117.718 27.6325 112.68 23.4072 105.247 23.4072C101.483 23.4072 97.7602 24.2722 95.3174 25.289V55.7835H101.477V29.4676Z" fill="#DC0032"/>
<path fill-rule="evenodd" clip-rule="evenodd" d="M25.9887 0.217401L1.35583 13.7816L28.975 29.397C29.2322 29.5372 29.425 29.8645 29.425 30.1626L29.4133 53.6266C29.4133 53.9188 29.2146 54.2578 28.9575 54.3922L27.4789 55.2104C27.3562 55.2747 27.1984 55.3097 27.0348 55.3097H27.0056C26.8302 55.3156 26.6666 55.2805 26.5322 55.2104L25.0536 54.3922C24.8024 54.2578 24.6037 53.9188 24.6037 53.6266L24.5978 32.7164C24.5861 32.5645 24.4751 32.3775 24.3524 32.3073L0.0233725 18.5094L0 45.9358C0 46.5553 0.438305 47.315 0.970118 47.6247L26.0471 62.3168C26.579 62.6324 27.4497 62.6265 27.9815 62.311L52.7255 47.6072C53.2573 47.2916 53.6897 46.526 53.6897 45.9124V18.2348L37.2327 28.0996C37.11 28.1697 36.9581 28.2106 36.8003 28.2106C36.625 28.2106 36.4613 28.1639 36.3328 28.0879L34.901 27.1996C34.6555 27.0477 34.4685 26.7087 34.4685 26.4165V24.7159C34.4685 24.4295 34.6613 24.0905 34.9126 23.9503L34.9243 23.9444C34.9828 23.8626 35.0529 23.7925 35.1347 23.7457L52.0768 13.5887L27.9582 0.223251C27.6893 0.0713044 27.3328 0.00117234 26.9764 0.00117234C26.614 -0.0105159 26.2575 0.0654546 25.9887 0.217401Z" fill="#DC0032"/>
</svg>
